<svg id="图层_1" data-name="图层 1" xmlns="http://www.w3.org/2000/svg" viewBox="0 0 468.11 804.57"><title>male</title><path fill="#1f61cf" d="M483.11,327.2V517.37a43.89,43.89,0,1,1-87.77,0V356.46H366.09V773.37q0,21-15.09,36.11t-36.11,15.09q-21,0-36.12-15.09a49.23,49.23,0,0,1-15.08-36.11V561.26H234.43V773.37q0,21-15.09,36.11t-36.11,15.09q-21,0-36.12-15.09T132,773.37V356.46H102.77V517.37A42.36,42.36,0,0,1,90,548.46a42.32,42.32,0,0,1-31.08,12.8,42.32,42.32,0,0,1-31.09-12.8A42.36,42.36,0,0,1,15,517.37V327.2Q15,290.63,40.6,265t62.17-25.6H395.34q36.57,0,62.18,25.6t25.59,62.17ZM351.46,122.4q0,42.51-29.94,72.45t-72.46,30q-42.52,0-72.46-30T146.66,122.4q0-42.51,29.94-72.46T249.06,20q42.51,0,72.46,29.94t29.94,72.46Zm0,0" transform="translate(-15 -20)"/></svg>