<svg id="图层_1" data-name="图层 1" xmlns="http://www.w3.org/2000/svg" viewBox="0 0 325.58 634.52"><defs><style>.cls-1{fill:#1f61cf;}</style></defs><title>画板 1</title><circle class="cls-1" cx="164.3" cy="151.24" r="83.88"/><path class="cls-1" d="M311.48,409c-24.16-135.57-78.25-165.31-115.94-165.31H130c-88.9,0-113.07,159.37-113.89,168s4.51,21.3,16.39,23.35,24.17-4.1,26.63-18c10.65-60.38,23.74-86.4,30.64-96.59a2.63,2.63,0,0,1,4.8,1.5V595c0,15.31,11.79,28.66,27.1,29.12a28,28,0,0,0,28.82-28V465.37h27.65V595c0,15.31,11.8,28.66,27.1,29.12a28,28,0,0,0,28.82-28V324.33a2.65,2.65,0,0,1,5-1.25c22.65,40.75,26.76,78.89,29.45,92.31,2.86,14.34,12.7,18.84,20.89,20.07S315.17,429.73,311.48,409Z"/></svg>