<svg id="图层_1" data-name="图层 1" xmlns="http://www.w3.org/2000/svg" viewBox="0 0 327.94 628.54"><defs><style>.cls-1{fill:#ab11ad;}</style></defs><title>画板 1</title><path class="cls-1" d="M308.28,406C284.12,270.48,230,240.73,192.34,240.73H126.79c-88.9,0-113.07,159.37-113.89,168s4.51,21.3,16.39,23.35S54,428,55.92,414c9.32-67,31.54-96.89,31.54-96.89L65.24,490.54H91.35V592c0,15.31,11.8,28.66,27.11,29.12a28,28,0,0,0,28.82-28V490.54h27.65V592c0,15.31,11.8,28.66,27.1,29.12a28,28,0,0,0,28.82-28V490.54h24.58L233.34,315.75C257,356,262.4,398.05,265.27,412.39s12.7,18.85,20.89,20.08S312,426.73,308.28,406Z"/><path class="cls-1" d="M200.67,73.66,232.39,77l-1.84-59-59.13,29.8a12.66,12.66,0,0,0-21.24,0L90.13,18,88.59,77l32.6-3.42a90.87,90.87,0,0,0-51.34,81.78c0,31.5,11.06,67.5,16.28,75.58L109,213.52a76.58,76.58,0,0,0,9.08,6.6,82,82,0,0,0,85.68-.14,76,76,0,0,0,8.87-6.47l23.15,17.22c4.3-7.91,16-44,16-75.41A90.88,90.88,0,0,0,200.67,73.66Z"/></svg>