<svg id="图层_1" data-name="图层 1" xmlns="http://www.w3.org/2000/svg" viewBox="0 0 325.58 634.52"><defs><style>.cls-1{fill:#ab11ad;}</style></defs><title>画板 1 副本</title><path class="cls-1" d="M310.27,409C286.11,273.47,232,243.73,194.33,243.73H128.78c-88.9,0-113.07,159.37-113.89,168s4.5,21.3,16.39,23.35S56,431,57.91,417c9.32-67,31.54-96.9,31.54-96.9L67.23,493.53H93.34V595c0,15.31,11.8,28.66,27.1,29.12a28,28,0,0,0,28.83-28V493.53h27.65V595c0,15.31,11.8,28.66,27.1,29.12a28,28,0,0,0,28.82-28V493.53h24.58L235.33,318.74C259,359,264.39,401.05,267.26,415.39s12.7,18.84,20.89,20.07S314,429.73,310.27,409Z"/><path class="cls-1" d="M202.66,76.66,234.38,80l-1.85-59-59.12,29.8a12.66,12.66,0,0,0-21.24,0L92.11,21,90.58,80l32.59-3.42a90.86,90.86,0,0,0-51.33,81.77c0,31.5,11.06,67.51,16.28,75.59L111,216.51a76.58,76.58,0,0,0,9.08,6.6,82,82,0,0,0,85.68-.13,76.19,76.19,0,0,0,8.86-6.47l23.16,17.22c4.3-7.91,16-44,16-75.42A90.85,90.85,0,0,0,202.66,76.66Z"/></svg>