<svg id="图层_1" data-name="图层 1" xmlns="http://www.w3.org/2000/svg" viewBox="0 0 352.48 634.47"><defs><style>.cls-1{fill:#1f61cf;}</style></defs><title>画板 2</title><circle class="cls-1" cx="176.56" cy="120.09" r="89.03"/><path class="cls-1" d="M332.78,393.71c-25.65-143.88-83.06-175.45-123.06-175.45H140.14c-94.36,0-120,169.15-120.88,178.28S24,419.15,36.65,421.33,62.31,417,64.92,402.19c11.31-64.08,25.2-91.7,32.52-102.51a2.79,2.79,0,0,1,5.09,1.59V591.08c0,16.25,12.52,30.42,28.77,30.91a29.68,29.68,0,0,0,30.59-29.66V453.5h29.35V591.08c0,16.25,12.52,30.42,28.76,30.91a29.67,29.67,0,0,0,30.59-29.66V303.81a2.81,2.81,0,0,1,5.27-1.33c24,43.25,28.41,83.74,31.26,98,3,15.22,13.48,20,22.18,21.31S336.69,415.67,332.78,393.71Z"/></svg>