<svg id="图层_1" data-name="图层 1" xmlns="http://www.w3.org/2000/svg" viewBox="0 0 585.15 804.57"><title>female</title><path fill="#ab11ad" d="M614.15,498.11A43.72,43.72,0,0,1,570.26,542q-23.31,0-36.57-19.66L429.91,366.46H409.34V426.8L522.26,614.69a28.76,28.76,0,0,1,4.11,15.08A29.66,29.66,0,0,1,497.11,659H409.34V783.37q0,21-15.08,36.11t-36.12,15.09H285q-21,0-36.11-15.09T233.8,783.37V659H146a29.68,29.68,0,0,1-29.26-29.26,28.68,28.68,0,0,1,4.12-15.08L233.8,426.8V366.46H213.23L109.46,522.34Q96.2,542,72.89,542A42.32,42.32,0,0,1,41.8,529.2,42.34,42.34,0,0,1,29,498.11a42.78,42.78,0,0,1,7.31-24.22l117-175.55q33.38-48.91,80.46-48.91H409.34q47.09,0,80.46,48.91l117,175.55a42.79,42.79,0,0,1,7.32,24.22ZM424,132.4q0,42.51-29.94,72.45t-72.46,30q-42.51,0-72.46-30T219.17,132.4q0-42.51,29.94-72.46T321.57,30Q364.08,30,394,59.94T424,132.4Zm0,0" transform="translate(-29 -30)"/></svg>